<svg version="1" xmlns="http://www.w3.org/2000/svg" width="682.667" height="682.667" viewBox="0 0 512.000000 512.000000"><path d="M214.6 2.3c-1.3 1.2-2.7 3.8-3 5.7-.9 6.1-2.6 17.4-3 21-.3 1.9-1.3 9.2-2.2 16.1l-1.7 12.7-4.1 1.2C179.2 65.5 163 72.7 147 82.9c-7.2 4.5-19.6 13.6-24 17.7-1.9 1.7-5.5 5-8 7.3-2.5 2.2-4.8 4.1-5.2 4.1-.4 0-11.3-4.3-24.1-9.5C72.8 97.3 60.9 93 59.2 93c-1.8 0-4 .8-5 1.8-2.8 2.8-38 64.4-38.6 67.6-.3 1.6-.1 3.7.4 4.7.6 1 8.1 7.3 16.8 14 21.2 16.5 26.2 20.6 25.7 21-.5.6-4.3 19.5-5 24.9-3.5 26.5-2.3 51.8 3.8 77.5l1.4 6-20.4 16C27 335.3 17.4 343 16.9 343.7c-3 3.6-2.1 6.4 8.3 24.4 5.7 9.8 10.8 18.7 11.3 19.6C54 418.5 54.4 419 59 419c1.6 0 13.8-4.3 27.1-9.6l24-9.7 2.7 2.5c1.5 1.4 4.9 4.4 7.5 6.9 20.6 18.8 57.2 38.6 81.8 44.3 2.4.5 2.6 1 4.4 13.8 1 7.3 1.9 14.3 2.1 15.5.1 1.3.5 4 .8 6 .3 2.1.9 5.6 1.2 7.8 1.6 11.4 2.3 13.1 6 14.5 1.5.6 18.8 1 40.2 1 41.6 0 41.1.1 43.1-6.3.5-1.7 1.5-7.3 2.1-12.2 1.2-9.5 1.8-14.1 2.6-19 .3-1.7.7-4.8 1-7 .9-8.5 2-12.8 3.4-13.6.8-.4 6-2.2 11.5-3.9 18.1-5.8 43.1-18.4 45.8-23 .9-1.5 1.4-4 1.1-6-.4-3.4-.2-3.7 7.3-9.2 4.3-3.2 10.3-8.1 13.3-10.8 3-2.8 5.9-4.8 6.5-4.6 12.4 5.6 56.3 22.6 58.3 22.6 1.6 0 3.7-.8 4.8-1.9 2.6-2.4 38.3-64.2 38.9-67.3.9-4.7 1.2-4.4-22.5-23.1-2.9-2.3-20.5-16-20.7-16.2-.1 0 .4-2.5 1.2-5.5 1.3-5 2.4-10.1 4-19.9 2.4-14.5 2.4-47.4-.1-59.6-.3-1.1-.7-3.6-1-5.5-.3-1.9-1.4-6.9-2.3-11.1l-1.8-7.5 18-14c29.8-23.1 28.5-20.8 20-35.7-3.2-5.5-6.7-11.7-7.8-13.6-17.5-31.1-25.2-43.5-27.9-44.6-3.5-1.5-4.5-1.1-33.8 10.8-10.3 4.3-19.1 7.7-19.5 7.7-.4 0-2.9-1.9-5.4-4.3-8.8-8.1-11.6-10.4-19-15.9-20.3-15.1-45-27.2-66.5-32.7-4.1-1.1-4.1-1.1-4.7-6.9-.4-3.1-.9-6.8-1.2-8.2-.3-1.4-.7-4.4-1-6.7-.3-2.3-.7-5.7-1-7.5-.2-1.8-1.1-7.9-2-13.6-1.7-11.6-2.6-13.9-6.1-15.2-1.5-.6-18.8-1-40.4-1h-37.9l-2.5 2.3z"/></svg>